<svg width="19" height="19" viewBox="0 0 19 19" fill="none" xmlns="http://www.w3.org/2000/svg">
<path d="M2.71777 0.0449219H15.3984C16.1071 0.0449219 16.787 0.327009 17.2881 0.828125C17.7891 1.32923 18.0703 2.00915 18.0703 2.71777V4.5293C18.0702 5.3148 17.732 6.02178 17.1914 6.51074L17.1768 6.52441V16.2725C17.1768 16.7409 16.9904 17.1902 16.6592 17.5215C16.3279 17.8527 15.8786 18.0391 15.4102 18.0391H8.49023V18.0381L8.48145 18.04C8.37296 18.0605 8.26275 18.0703 8.15234 18.0703H6.34082C6.23028 18.0703 6.11936 18.0606 6.01074 18.04L6.01172 18.0391H2.72754C2.25909 18.0391 1.80976 17.8527 1.47852 17.5215C1.14727 17.1902 0.960938 16.7409 0.960938 16.2725V6.45312L0.913086 6.5C0.644862 6.25485 0.429441 5.95766 0.280273 5.62598C0.125209 5.28115 0.0444295 4.90738 0.0449219 4.5293V2.71777C0.0449219 2.00909 0.32701 1.32924 0.828125 0.828125C1.32924 0.327009 2.00909 0.0449219 2.71777 0.0449219ZM11.7451 6.52051C11.2557 6.95948 10.6213 7.20207 9.96387 7.20117H8.15234C7.4683 7.20117 6.84315 6.94353 6.37109 6.52051L6.34082 6.49316L6.31055 6.52051C5.82123 6.95943 5.18662 7.20202 4.5293 7.20117H2.68164V16.3184H4.57422V11.7754C4.57422 11.3069 4.76055 10.8576 5.0918 10.5264C5.42303 10.1952 5.87242 10.0088 6.34082 10.0088H8.15234C8.62074 10.0088 9.07016 10.1952 9.40137 10.5264C9.73255 10.8576 9.91895 11.307 9.91895 11.7754V16.3184H15.4561V7.20117H13.5869C12.9028 7.20116 12.2777 6.94358 11.8057 6.52051L11.7754 6.49316L11.7451 6.52051ZM6.29492 16.3184H8.15234V16.2734H8.19727V11.7305H6.29492V16.3184ZM12.6816 10.0088H13.5869C13.815 10.0088 14.034 10.0995 14.1953 10.2607C14.3566 10.422 14.4472 10.6411 14.4473 10.8691V13.5869C14.4473 13.8151 14.3567 14.0339 14.1953 14.1953C14.0339 14.3567 13.8151 14.4473 13.5869 14.4473H12.6816C12.4534 14.4473 12.2336 14.3567 12.0723 14.1953C11.9111 14.034 11.8203 13.815 11.8203 13.5869V10.8691C11.8204 10.6411 11.911 10.422 12.0723 10.2607C12.2336 10.0994 12.4534 10.0088 12.6816 10.0088ZM2.71777 1.7666C2.46553 1.7666 2.22329 1.86656 2.04492 2.04492C1.86656 2.22329 1.7666 2.46553 1.7666 2.71777V4.5293C1.76668 4.78136 1.86672 5.0229 2.04492 5.20117C2.22329 5.37954 2.46553 5.48047 2.71777 5.48047H4.5293C4.78143 5.48039 5.02288 5.37946 5.20117 5.20117C5.37946 5.02288 5.48039 4.78143 5.48047 4.5293V1.7666H2.71777ZM7.20117 4.5293C7.20125 4.78131 7.30136 5.02291 7.47949 5.20117C7.65786 5.37954 7.9001 5.48047 8.15234 5.48047H9.96387C10.2161 5.48044 10.4584 5.37951 10.6367 5.20117C10.8148 5.02292 10.915 4.78125 10.915 4.5293V1.7666H7.20117V4.5293ZM12.6357 4.5293C12.6358 4.78126 12.736 5.02292 12.9141 5.20117C13.0924 5.37952 13.3347 5.48046 13.5869 5.48047H15.3984C15.6507 5.48047 15.8929 5.37954 16.0713 5.20117C16.2494 5.02291 16.3495 4.7813 16.3496 4.5293V2.71777C16.3496 2.46559 16.2496 2.22327 16.0713 2.04492C15.8929 1.86656 15.6507 1.7666 15.3984 1.7666H12.6357V4.5293Z" fill="#181725" stroke="white" stroke-width="0.0905797"/>
</svg>
